<svg xmlns="http://www.w3.org/2000/svg" width="410" height="250" viewBox="0 0 410 250" fill="none">
<style>
  .sans{font-family:'SF Pro Display',-apple-system,BlinkMacSystemFont,'Segoe UI',Inter,Helvetica,Arial,sans-serif} .mono{font-family:'SF Mono',ui-monospace,Menlo,Consolas,'Liberation Mono',monospace}
  
  @media (prefers-reduced-motion: reduce){ *{animation:none!important} }
</style>
<defs>
  <linearGradient id="pjspottedbg" x1="0" y1="0" x2="1" y2="1"><stop offset="0" stop-color="#0A1013"/><stop offset="1" stop-color="#0F1A1E"/></linearGradient>
  <pattern id="pjspotteddots" width="22" height="22" patternUnits="userSpaceOnUse"><circle cx="1.2" cy="1.2" r="1.2" fill="#ffffff" fill-opacity=".045"/></pattern>
  <radialGradient id="pjspotted0" cx=".15" cy=".5" r=".6"><stop offset="0" stop-color="#FF8F6B" stop-opacity="0.14"/><stop offset="1" stop-color="#FF8F6B" stop-opacity="0"/></radialGradient>
</defs>
<rect width="410" height="250" rx="22" fill="url(#pjspottedbg)"/>
<rect width="410" height="250" rx="22" fill="url(#pjspotteddots)"/>
<rect width="410" height="250" rx="22" fill="url(#pjspotted0)"/>
<rect x=".5" y=".5" width="409" height="249" rx="21.5" stroke="#ffffff" stroke-opacity=".08"/><g transform="translate(26,38)"><rect x="0" y="0" width="90" height="176" rx="18" fill="#101518" stroke="#A7A39B" stroke-opacity=".55" stroke-width="1.5"/><rect x="6" y="6" width="78" height="164" rx="14" fill="#FFF6F1"/><rect x="33" y="11" width="24" height="7" rx="3.5" fill="#000"/><rect x="12" y="28" width="40" height="7" rx="3" fill="#1A0E0A"/><rect x="12" y="42" width="66" height="54" rx="8" fill="#FFE3D6"/><path d="M12 70H78M40 42V96" stroke="#FFCDB8" stroke-width="3"/><circle cx="28" cy="58" r="4" fill="#1A0E0A"/><circle cx="52" cy="76" r="6" fill="#FF8F6B"/><circle cx="66" cy="54" r="4" fill="#1A0E0A"/><rect x="12" y="104" width="66" height="15" rx="5" fill="#fff"/><rect x="16" y="107" width="9" height="9" rx="3" fill="#FF8F6B"/><rect x="12" y="124" width="66" height="15" rx="5" fill="#fff"/><rect x="16" y="127" width="9" height="9" rx="3" fill="#FFD9CB"/><rect x="12" y="144" width="66" height="15" rx="5" fill="#fff"/><rect x="16" y="147" width="9" height="9" rx="3" fill="#FFD9CB"/></g>
<rect x="138" y="38" width="86" height="22" rx="11" stroke="#FF8F6B" stroke-opacity=".5"/>
<text x="181.0" y="53" text-anchor="middle" class="mono" font-size="11" letter-spacing="1" fill="#FF8F6B">BUILDING</text>
<text x="137" y="104" class="sans" font-size="31" font-weight="800" letter-spacing="-1" fill="#E8EFEF">Spotted</text>
<text x="138" y="134" class="sans" font-size="14.5" fill="#97ACB1">Find what&#x27;s happening near</text><text x="138" y="155" class="sans" font-size="14.5" fill="#97ACB1">you. Full-stack, end to end.</text>
<rect x="138.0" y="190" width="69.7" height="26" rx="13.0" fill="#ffffff" fill-opacity=".05" stroke="#ffffff" stroke-opacity=".10"/><text x="172.9" y="204.5" text-anchor="middle" class="mono" font-size="11" fill="#E8EFEF">SwiftUI</text><rect x="213.7" y="190" width="97.0" height="26" rx="13.0" fill="#ffffff" fill-opacity=".05" stroke="#ffffff" stroke-opacity=".10"/><text x="262.2" y="204.5" text-anchor="middle" class="mono" font-size="11" fill="#E8EFEF">Spring Boot</text><rect x="316.8" y="190" width="76.6" height="26" rx="13.0" fill="#ffffff" fill-opacity=".05" stroke="#ffffff" stroke-opacity=".10"/><text x="355.0" y="204.5" text-anchor="middle" class="mono" font-size="11" fill="#E8EFEF">Postgres</text>
</svg>